<svg width="1280" height="1128" viewBox="0 0 1280 1128" fill="none" xmlns="http://www.w3.org/2000/svg">
<path d="M0 45.5C5.8095 16.536 16.5223 6.509 45.7436 0.00549451L0 0V45.5Z" fill="white"/>
<path d="M45.5 1128C16.536 1122.19 6.50887 1111.22 0.00536908 1082L0 1128L45.5 1128Z" fill="white"/>
<path d="M1280 0L382 0.5C397.542 2.04873 403.5 5 415.5 15.5C415.5 15.5 427.5 27 441.5 42C455.5 57 466.53 63.8237 484 64.5C484 64.5 1205 64 1231.5 64.5C1258 65 1273.29 77.5959 1280 109.5V0Z" fill="#D9D9D9"/>
<path d="M1280 1082C1274.19 1110.96 1263.22 1121.5 1234 1128L1280 1128L1280 1082Z" fill="white"/>
</svg>
