<svg width="900" height="559" viewBox="0 0 900 559" fill="none" xmlns="http://www.w3.org/2000/svg">
<path d="M1 28.4503C3.869 10.8504 12 2.99638 30 1L1 1.00008V28.4503Z" fill="white" stroke="white" stroke-width="2"/>
<path d="M899 529.584C896.131 547.184 888 555.088 870 557.084H899V529.584Z" fill="white" stroke="white" stroke-width="2"/>
<path d="M1 529.45C3.869 547.05 12 555.088 30 557.084H1V529.45Z" fill="white" stroke="white" stroke-width="2"/>
<path d="M329.916 13.2261C321.958 5.39955 310.166 3.17484 296 1H899V74.8662C891.96 49.7805 883.5 38.4322 857.603 32.5842C855 29.4485 381.867 35.8906 362.834 32.5842C343.801 29.2777 340.48 24.2975 329.916 13.2261Z" fill="white" stroke="white" stroke-width="2"/>
</svg>
